<?xml version="1.0" encoding="UTF-8" standalone="no"?>
<!DOCTYPE svg PUBLIC "-//W3C//DTD SVG 1.1//EN" "http://www.w3.org/Graphics/SVG/1.1/DTD/svg11.dtd">
<svg
    xmlns:svg="http://www.w3.org/2000/svg"
    xmlns="http://www.w3.org/2000/svg"
    version="1.1"
    width="1000"
    height="266.72723"
    id="svg3604">
  <defs id="defs3606" />
  <rect
      width="155.02162"
      height="266.69324"
      x="844.97839"
      y="9.7756347e-05"
      id="rect25"
      style="fill:#ffffff;fill-rule:evenodd;"
  />
  <path
      d="m 844.98872,9.4e-5 0,192.342246 c 1.55426,4.89987 1.72267,7.08261 5.52741,11.29003 0.87122,2.06984 1.97435,3.4651 3.58694,5.057 0.96906,0.95589 2.98622,3.42794 3.76335,4.41017 0.71691,0.90885 1.69491,2.99374 2.29329,3.76334 2.93352,3.77088 4.29727,4.40594 7.70309,6.93867 2.06044,1.51851 3.41994,3.1551 6.23305,4.17497 2.82062,0.5645 5.04194,3.00409 7.40908,4.35136 0.84299,0.47983 2.12535,1.31247 2.70491,1.99928 1.25507,1.49405 1.19862,3.76146 3.05772,3.99856 0.85616,0.10725 1.70479,-0.62143 2.5873,-0.76443 1.26824,-0.2258 3.06007,-0.4676 4.76298,-0.35282 0.99917,0.0753 2.07266,0.56309 3.17532,0.76443 2.3408,0.42526 3.46934,0.32459 4.88059,1.99928 3.37761,-0.77901 5.20283,1.0702 6.58586,2.76371 l 3.64574,0 c 0.52499,-0.19005 0.40174,-1.00199 1.05844,-1.05844 3.53566,-0.32365 7.29666,-1.52369 10.99603,-1.82288 1.08572,-0.0941 2.30928,0.13737 3.35172,0 0.74327,-0.10725 1.50111,-0.8284 2.29329,-0.76442 0.65859,0.0489 1.2038,0.78795 1.82287,0.88203 2.47064,0.37633 6.19635,-2.62117 8.23232,-3.05772 0.58144,-0.12419 1.22074,0.0602 1.82287,0 4.51037,-0.43655 8.94265,-2.73501 12.8189,-4.58658 3.02949,-1.44888 5.74992,-2.84132 8.64393,-4.23376 0.97659,-0.47606 2.19027,-0.70233 3.05772,-1.23485 1.30024,-0.81288 2.27542,-2.38784 3.35173,-3.52813 1.67093,-1.76125 2.69174,-3.58694 5.057,-4.52778 6.30925,-7.50223 9.87314,-17.78369 13.40692,-28.69551 0.22956,-0.70751 0.45019,-1.5632 0.76443,-2.29329 0.46853,-1.0989 1.13512,-1.50628 1.23484,-3.17532 0.22957,-4.04372 -0.30671,-8.20363 -0.47041,-12.64249 -0.11479,-2.96176 0.37022,-6.00536 0.17631,-8.58513 -0.15994,-2.03597 -0.93707,-3.97645 -0.94084,-5.93903 -0.002,-0.54004 0.21592,-1.11207 0.17632,-1.64646 -0.0734,-1.06879 -0.75832,-2.3742 -0.94084,-3.70455 -0.13172,-0.89191 0.0837,-1.84968 -0.11761,-2.5873 -0.22391,-0.79595 -1.01422,-1.29647 -1.41125,-2.11688 -0.77337,-1.56931 -1.3882,-3.55025 -2.29329,-5.35101 -0.8618,-1.71044 -2.05761,-3.27787 -2.7049,-4.70418 -0.63036,-1.39244 -0.47136,-2.91847 -2.4697,-3.05772 -1.17793,-1.74619 -3.20919,-2.79946 -4.58658,-4.41017 -0.37069,-0.43655 -0.40691,-1.04715 -0.76443,-1.52886 -1.07819,-1.42819 -3.04642,-2.98574 -4.70418,-4.41017 -1.72549,-1.48464 -3.35455,-3.3442 -4.88059,-4.29256 -0.59272,-0.36881 -1.52368,-0.34482 -2.29329,-0.76443 -1.07067,-0.5758 -1.81722,-1.67234 -2.7637,-2.29329 -2.94106,-1.93248 -6.54917,-2.93541 -10.46681,-4.23377 -2.42171,-0.79971 -4.96856,-1.66104 -7.64429,-2.29328 -3.09347,-0.72633 -6.12673,-1.15206 -9.64358,-1.70527 -0.76584,-0.12419 -1.61494,-0.59931 -2.41089,-0.58802 -1.00293,0.007 -2.69362,0.87921 -4.11616,1.23484 -3.88942,0.96718 -6.48142,1.77348 -10.2316,2.70491 -6.47671,1.62388 -10.72036,3.99902 -15.81781,7.35028 -3.01632,1.97576 -6.96924,4.41535 -8.87914,6.70346 -1.84592,2.20909 -3.68197,4.73335 -5.35101,7.17388 -1.70103,2.48569 -3.14992,5.12615 -4.23376,8.05591 -0.0941,0.41397 -0.79313,0.2258 -1.05844,0.47042 -0.5551,5.24987 -2.71102,10.43482 -2.76371,15.87662 -0.0207,2.21661 -0.0546,4.98737 0.47042,7.17387 0.23709,0.96342 0.98552,1.6427 1.35245,2.5873 1.20991,3.11793 0.91637,6.41368 2.11688,9.29076 1.5298,3.67679 5.18824,7.3644 7.8207,10.52561 0.8938,1.06502 1.66246,2.47675 2.70491,3.35173 1.37174,1.13653 3.40065,2.03973 5.2334,3.05771 5.58292,3.11229 12.62038,7.25526 20.6984,5.58622 1.23626,0.69622 2.75007,1.35245 4.58658,1.11724 1.06691,-0.13548 1.83463,-1.27906 3.05772,-1.82287 0.83546,-0.37069 3.27035,-1.24378 4.23376,-1.41125 0.55886,-0.0941 1.33223,0.15241 1.88168,0 1.65963,-0.45913 3.9087,-3.34326 4.99819,-4.41017 4.06629,-1.81958 7.04969,-5.67983 8.82034,-9.76118 0.58144,-1.33599 0.69293,-2.77029 1.23485,-4.29257 0.34999,-0.96341 1.27765,-1.78617 1.41125,-2.88131 0.175,-1.42442 -0.27049,-1.65728 -0.17631,-2.7637 0.0771,-0.83359 0.41209,-1.13654 0.47042,-1.64647 0.37821,-2.92224 -0.57673,-6.29561 -1.52886,-8.40872 -0.23333,-0.52687 -0.76114,-0.95495 -1.05844,-1.52886 -0.60026,-1.09701 -0.85522,-2.14087 -1.52886,-2.99892 -1.99081,-2.55907 -4.07947,-3.66032 -7.05627,-4.76298 -4.86037,-1.81958 -14.5284,0.31471 -12.93651,5.93903 0.59273,2.0943 2.92224,1.9687 4.70419,3.35173 2.54214,1.9814 2.9895,6.63572 2.29329,11.17243 -0.22769,1.49593 -1.18358,1.94141 -2.11689,2.99891 -1.4884,1.69163 -1.35057,1.81676 -3.93975,2.4697 -3.45475,0.86745 -4.93704,1.46582 -8.40872,0.47042 -1.20051,-0.33494 -2.55767,-0.3721 -3.35173,-0.64683 -1.76125,-0.6153 -4.68396,-3.48533 -5.93903,-4.99819 -0.76208,-0.91073 -1.47147,-2.12112 -2.11689,-3.35173 -1.55049,-2.97116 -2.56754,-4.54048 -2.94011,-9.17315 -0.30483,-3.7577 -0.34717,-6.14319 1.05844,-9.58477 0.95213,-2.33892 1.79888,-4.86648 3.05772,-6.40945 2.12253,-2.59106 5.22917,-3.6989 6.58585,-6.99747 3.93835,-0.99917 6.7077,-3.18614 10.05519,-4.76299 2.27495,0.70375 4.52825,-1.33081 6.23304,0.17632 0.59461,-0.16559 0.25685,-1.28377 1.05845,-1.23485 5.97054,-0.18252 11.64002,-0.0301 15.28859,2.11688 0.58143,0.0847 0.71833,-0.24367 1.35245,-0.1176 0.49488,0.66046 1.49217,0.6106 2.11688,1.05844 0.78466,0.57579 1.12101,1.7062 1.82287,2.29329 1.14594,0.95212 2.63011,1.36515 3.70455,1.99927 2.16956,1.27013 4.10816,3.45758 5.46861,5.76263 0.91637,1.56179 1.47382,3.76522 3.35173,4.70418 0.15241,1.33411 0.32882,2.51062 0.88203,3.82215 0.43467,1.03492 1.39856,1.77771 1.70527,2.7637 0.60966,2.00022 0.40126,4.70701 0.76443,7.17388 0.20322,1.31717 1.07726,2.90248 1.05844,4.11616 -0.0113,0.93331 -0.72586,1.98987 -0.88204,3.17532 -0.27472,2.16392 0.10444,4.54988 -0.35281,6.11544 -0.50429,1.71232 -1.87085,3.11934 -2.41089,4.88059 -0.96718,3.16685 -1.38633,6.25279 -2.76371,8.70273 -1.13465,2.03974 -2.99845,3.95057 -4.58658,5.76263 -1.6013,1.83086 -3.63633,3.20401 -5.2922,4.88058 -0.90509,0.92014 -1.47429,2.14982 -2.4697,2.94012 -1.10266,0.87874 -2.73219,1.41972 -4.23376,2.23449 -1.39056,0.75455 -2.6701,1.91977 -3.99856,2.6461 -1.19862,0.6567 -3.02949,1.15299 -4.70418,1.82287 -1.50157,0.59837 -3.35267,1.99457 -4.41017,2.11688 -1.46582,0.18064 -3.77228,-0.7856 -5.82142,-0.58802 -2.89402,0.27284 -5.63373,1.98516 -7.76191,2.11688 -1.60506,0.1129 -2.425,-0.58849 -3.23412,-1.35245 -1.30588,-0.009 -1.9353,-0.35282 -3.17532,0.1176 -0.91261,-0.31988 -1.25508,-1.40937 -2.11689,-1.64646 -0.99916,-0.26908 -2.34691,0.14112 -3.35173,0 -3.57706,-0.493 -7.07273,-3.16592 -10.5256,-4.58658 -2.54779,-1.04621 -4.99537,-1.54721 -5.82143,-4.29257 -5.27621,-2.75288 -9.91688,-6.10791 -11.11363,-12.9365 -0.57203,-0.37633 -1.46018,-0.0132 -2.11688,0 -0.318,-0.32929 0.20792,-0.67222 0.1176,-1.23484 -1.89108,-0.71128 -1.93624,-3.2346 -4.23376,-3.52814 -0.0715,-0.74514 0.68634,-1.18546 0.41162,-1.64647 -1.59754,-3.34937 -3.14287,-7.40391 -4.52778,-11.46644 -0.43467,-1.27577 -1.25884,-2.58918 -1.41125,-3.76334 -0.26156,-2.00775 0.56262,-4.42758 0.47041,-6.58586 -0.0489,-1.19674 -0.13736,-3.32867 -0.47041,-4.23376 -0.16371,-0.45348 -0.59743,-0.37492 -0.58803,-0.76443 0.0471,-7.18046 1.57779,-13.38528 3.64574,-18.93433 0.94272,-2.53085 2.45277,-4.94974 3.64575,-7.6443 2.50074,-5.63749 5.65489,-9.30158 10.408,-12.76009 0.75455,-0.55133 1.65211,-1.10313 2.11688,-1.70527 0.29542,-0.3895 0.35611,-1.20756 0.76443,-1.82287 0.28601,-0.40644 1.14547,-1.10689 1.82287,-1.70526 2.15263,-1.91931 4.15426,-3.12923 7.46789,-4.70419 3.80098,-1.80264 7.68146,-3.86636 11.58405,-5.82142 2.4744,-1.24191 5.3082,-3.19273 8.23232,-3.469336 0.58332,-0.04704 1.22638,0.117605 1.82287,0.117605 5.18777,0.01129 10.35202,-1.996455 15.40619,-2.116882 3.60717,-0.08279 7.48154,0.19099 10.81962,0.588023 1.92307,0.233327 3.72713,1.38444 5.35101,0.646825 1.37362,1.315289 3.33197,1.068319 4.88059,1.82287 0.95024,0.468535 1.55473,1.386325 2.41089,1.822875 0.43843,0.22203 1.0321,0.24838 1.52886,0.47041 0.44596,0.21451 0.84158,0.63836 1.23485,0.76443 0.62472,0.20887 1.35763,0.0551 1.99928,0.29401 0.76772,0.27473 1.30588,1.0815 2.11688,1.35246 0.88439,0.28789 1.97434,0.0311 2.88131,0.35281 1.24943,0.4309 2.60659,2.70208 5.2334,2.11688 0.91261,1.62012 2.22555,2.81969 4.41017,3.17533 -0.0771,0.68492 0.0442,1.17087 0.11761,1.70526 1.38115,1.24943 3.25764,1.10031 4.76298,1.82287 1.33223,0.62848 2.94012,2.40008 4.11616,3.64574 3.7276,3.94775 7.04687,8.84998 10.3492,12.99531 l 0,1.52886 c 1.14406,0.93142 1.4122,2.1484 1.99928,3.46933 0.54945,1.23814 1.55332,2.2693 2.4697,3.29293 L 999.99143,0 844.98862,0 z m 10.408,9.173155 10.87842,0 c 6.06275,0 10.56089,0.508522 13.52453,1.470057 2.95799,0.961535 5.52365,2.581185 7.64429,4.880589 1.88168,2.000218 3.26235,4.325025 4.17496,6.938668 0.91073,2.619289 1.41126,5.571163 1.41126,8.879144 0,3.35126 -0.49864,6.309249 -1.41126,8.937946 -0.91073,2.623052 -2.29328,4.940332 -4.17496,6.938669 -2.13946,2.305049 -4.71124,3.919054 -7.7031,4.880589 -2.99374,0.961535 -7.48576,1.470057 -13.46572,1.470057 l -10.87842,0 0,-44.395719 z m 38.45669,0 9.87878,0 6.87987,32.28245 6.82106,-32.28245 9.93759,0 6.87986,32.28245 6.87987,-32.28245 9.81998,0 -9.46717,44.395719 -11.87805,0 -7.23269,-33.752507 -7.17387,33.752507 -11.87806,0 -9.46717,-44.395719 z m 61.33078,0 10.87842,0 c 6.06275,0 10.62157,0.508522 13.58332,1.470057 2.95987,0.961535 5.46673,2.581185 7.5855,4.880589 1.88167,2.000218 3.26423,4.325025 4.17496,6.938668 0.91073,2.619289 1.41125,5.571163 1.41125,8.879144 0,3.35126 -0.49864,6.309249 -1.41125,8.937946 -0.90885,2.623052 -2.29329,4.940332 -4.17496,6.938669 -2.13758,2.305049 -4.71124,3.919054 -7.7031,4.880589 -2.98998,0.961535 -7.482,1.470057 -13.46572,1.470057 l -10.87842,0 0,-44.395719 z m -89.43827,8.643935 0,27.107849 3.64574,0 c 4.19802,0 7.42697,-1.151113 9.64358,-3.469334 2.22037,-2.318221 3.35173,-5.693942 3.35173,-10.113992 0,-4.393706 -1.14265,-7.755785 -3.35173,-10.055189 -2.20721,-2.299404 -5.42487,-3.469334 -9.64358,-3.469334 l -3.64574,0 z m 99.78747,0 0,27.107849 3.64574,0 c 4.19801,0 7.42696,-1.151113 9.64357,-3.469334 2.22037,-2.318221 3.35173,-5.693942 3.35173,-10.113992 0,-4.393706 -1.14265,-7.755785 -3.35173,-10.055189 -2.20908,-2.299404 -5.42486,-3.469334 -9.64357,-3.469334 l -3.64574,0 z m 34.45813,182.522266 c -0.85992,0.94083 -1.87179,1.86379 -2.29329,3.17532 -0.22392,0.70186 -0.1383,1.5378 -0.35281,2.17568 -0.66047,1.95882 -2.7877,4.04089 -3.64574,6.23304 -0.30295,0.76773 -0.28131,1.51475 -0.58803,2.11689 -0.5231,1.02739 -1.81722,2.02468 -2.7637,3.05771 -2.56096,2.78488 -4.30104,7.29055 -7.46789,9.76118 -1.22873,0.95965 -2.76512,1.76078 -4.11616,2.76371 -1.304,0.96718 -2.58401,2.1023 -3.82215,2.88131 -1.13277,0.70186 -2.52991,1.00717 -3.64574,1.70527 -1.14218,0.71127 -1.79559,2.01809 -2.88131,2.7049 -1.06879,0.67552 -2.90907,0.84581 -4.46898,1.52886 -1.23625,0.54569 -2.43018,1.51475 -3.64574,2.11688 -5.27056,2.63246 -11.2571,3.92141 -17.52308,5.64502 -3.19508,0.88062 -6.30548,2.25142 -9.17315,2.4697 -1.12524,0.0884 -2.34598,-0.0471 -3.46933,0 -2.94294,0.12983 -5.8299,0.63788 -8.52633,0.47041 -2.20909,-0.13736 -4.63174,-0.9413 -7.17388,-1.23484 -2.57225,-0.30107 -5.3162,0.54192 -7.82071,-0.47042 -1.52791,0.35375 -3.04831,0.70986 -4.70418,0.29401 -0.70562,-0.18064 -1.29929,-0.90132 -1.99927,-1.17605 -1.23815,-0.49299 -2.83474,-0.67599 -4.11616,-1.23484 -0.70563,-0.30483 -1.16993,-0.994 -1.82287,-1.23485 -0.81477,-0.3086 -1.81582,-0.2258 -2.5873,-0.47042 -1.78948,-0.57203 -3.24072,-1.50957 -4.9982,-1.94047 -3.78781,0.97094 -7.17717,-0.84864 -10.408,-1.41126 -2.13758,-2.29188 -6.10321,-3.16638 -7.17388,-6.52705 -1.10454,-0.76772 -1.50816,-1.43148 -2.7049,-1.82287 -0.71316,-0.23709 -1.08714,-0.92108 -1.82287,-1.05844 -2.7209,-0.50429 -4.54519,-2.22884 -6.70346,-4.11616 -1.64835,-1.44889 -3.88801,-2.23214 -5.23341,-3.82215 -0.89003,-1.0575 -1.62388,-2.71243 -2.5873,-4.11616 -1.47711,-2.1564 -3.19555,-4.37677 -4.76298,-6.58586 l 0,54.50972 155.0028,0 0,-66.38777 z"
      id="path35"
      style="fill:#2d4b9b;fill-rule:evenodd;"
  />
  <path
      d="m 791.62918,122.10375 v 10.64462 h 11.11128 v 8.57102 h -11.11128 v 15.90013 c 0,1.73867 0.30483,2.9166 0.91638,3.5319 0.6153,0.61531 1.84968,0.91826 3.70125,0.91826 h 5.55846 v 8.57478 h -9.2409 c -4.26575,0 -7.28772,-0.99164 -9.06966,-2.96364 -1.78759,-1.97575 -2.68138,-5.33077 -2.68138,-10.0613 v -15.90013 h -5.35525 v -8.57102 h 5.35525 v -10.64462 h 10.81585 z m -21.47741,11.8169 v 9.10918 c -2.30129,-1.07632 -4.52731,-1.87979 -6.67994,-2.41042 -2.15452,-0.54004 -4.17543,-0.80536 -6.07592,-0.80536 -2.05103,0 -3.57706,0.28225 -4.5687,0.8524 -0.99165,0.56826 -1.49029,1.44512 -1.49029,2.62681 0,0.95777 0.37445,1.69351 1.12524,2.20909 0.74514,0.51181 2.10371,0.89191 4.0663,1.13841 l 1.87226,0.2973 c 5.534,0.78278 9.25595,2.06984 11.16585,3.85179 1.90801,1.78382 2.86014,4.58752 2.86014,8.3979 0,3.99855 -1.32658,6.99794 -3.98162,9.01133 -2.65128,2.00586 -6.61408,3.01068 -11.879,3.01068 -2.22978,0 -4.5386,-0.1957 -6.91139,-0.5852 -2.38219,-0.38951 -4.82084,-0.97659 -7.3197,-1.76125 v -9.10165 c 2.14134,1.15911 4.34854,2.02845 6.6122,2.61553 2.26365,0.57579 4.55929,0.86933 6.87751,0.86933 2.10183,0 3.68432,-0.32553 4.75311,-0.97847 1.07255,-0.64729 1.60883,-1.60506 1.60883,-2.87708 0,-1.07067 -0.36881,-1.86473 -1.10643,-2.3916 -0.73573,-0.52311 -2.19967,-0.93143 -4.38241,-1.22497 l -1.91178,-0.2672 c -4.80015,-0.66799 -8.16082,-1.91178 -10.09141,-3.7163 -1.92872,-1.80829 -2.89778,-4.55177 -2.89778,-8.23232 0,-3.97221 1.22685,-6.91891 3.68243,-8.83822 2.45747,-1.92119 6.22081,-2.88084 11.28439,-2.88084 1.98517,0 4.06818,0.16935 6.25657,0.50617 2.18462,0.33494 4.56494,0.85804 7.13154,1.57496 z m -35.66711,13.48971 v 22.8341 h -10.84785 v -3.72007 -13.75879 c 0,-3.24024 -0.0658,-5.47002 -0.19945,-6.69687 -0.13548,-1.22685 -0.35564,-2.13193 -0.66988,-2.70961 -0.42526,-0.78277 -0.99917,-1.38867 -1.71985,-1.8271 -0.73009,-0.43091 -1.54861,-0.65482 -2.46687,-0.65482 -2.2486,0 -4.01925,0.97094 -5.30255,2.89777 -1.28519,1.9306 -1.92496,4.60257 -1.92496,8.01781 v 18.4498 h -10.7801 v -37.49421 h 10.7801 v 5.4926 c 1.62953,-2.19027 3.35503,-3.80286 5.19154,-4.84154 1.8271,-1.03304 3.84802,-1.55803 6.05899,-1.55803 3.88189,0 6.83235,1.33034 8.85139,3.9835 2.01903,2.66257 3.02949,6.52 3.02949,11.58546 z m -40.02318,3.9835 v 3.41336 h -25.20501 c 0.24462,2.81122 1.15158,4.92057 2.72466,6.3243 1.57308,1.40749 3.76523,2.115 6.57457,2.115 2.28058,0 4.60445,-0.37822 6.981,-1.12712 2.37844,-0.74702 4.8152,-1.87979 7.31783,-3.39642 v 9.23901 c -2.54402,1.07255 -5.09557,1.87603 -7.65088,2.42548 -2.55343,0.54568 -5.10498,0.82041 -7.64336,0.82041 -6.1192,0 -10.86854,-1.71985 -14.24991,-5.17084 -3.37948,-3.44723 -5.06922,-8.28312 -5.06922,-14.50581 0,-6.1192 1.66528,-10.93064 4.98455,-14.43243 3.32868,-3.50556 7.90302,-5.25928 13.72868,-5.25928 5.31197,0 9.55702,1.7763 12.73893,5.3289 3.18191,3.54507 4.76816,8.29441 4.76816,14.22544 z m -11.07929,-3.9835 c 0,-2.2787 -0.59837,-4.11145 -1.78947,-5.50953 -1.19675,-1.39621 -2.7623,-2.08678 -4.70419,-2.08678 -2.07736,0 -3.76711,0.64918 -5.0711,1.95506 -1.304,1.30776 -2.12629,3.18755 -2.45935,5.64125 h 14.02411 z m -41.66024,-29.26001 h 10.7801 v 9.77717 h -10.7801 v -9.77717 z m 0,14.59802 h 10.7801 v 37.49609 h -10.7801 v -37.49609 z m -20.50459,5.4926 v -20.09062 h 10.84785 v 52.09411 h -10.84785 v -5.42486 c -1.49969,2.21096 -3.13675,3.82167 -4.92057,4.85095 -1.78759,1.02551 -3.86496,1.53921 -6.23022,1.53921 -4.14909,0 -7.55868,-1.83463 -10.22501,-5.50578 -2.66821,-3.67302 -4.00044,-8.39602 -4.00044,-14.17087 0,-5.7805 1.33223,-10.51479 4.00044,-14.18217 2.66633,-3.66926 6.07592,-5.50954 10.22501,-5.50954 2.34456,0 4.41817,0.52311 6.20952,1.55803 1.79888,1.03868 3.44158,2.65127 4.94127,4.84154 z m -7.12778,24.26605 c 2.31823,0 4.08888,-0.93519 5.30068,-2.81121 1.21744,-1.87415 1.8271,-4.59693 1.8271,-8.1627 0,-3.57706 -0.60778,-6.29984 -1.8271,-8.17399 -1.21368,-1.87414 -2.98245,-2.81122 -5.30068,-2.81122 -2.2787,0 -4.02866,0.93708 -5.2461,2.81122 -1.21368,1.87415 -1.81958,4.59505 -1.81958,8.17399 0,3.56577 0.6059,6.28855 1.81958,8.1627 1.21744,1.87602 2.9674,2.81121 5.2461,2.81121 z m -19.13661,-19.54869 c -0.95777,-0.49112 -1.90049,-0.85052 -2.82627,-1.08761 -0.92955,-0.23709 -1.87227,-0.35376 -2.83004,-0.35376 -2.76982,0 -4.89987,0.99165 -6.39392,2.96928 -1.49593,1.97388 -2.24107,4.80015 -2.24107,8.4807 v 17.2794 h -10.77823 v -37.49797 h 10.77823 v 6.15683 c 1.38114,-2.45558 2.97304,-4.24505 4.76627,-5.37029 1.80265,-1.12901 3.95904,-1.69351 6.48048,-1.69351 0.35564,0 0.74515,0.0151 1.17229,0.0489 0.42149,0.0395 1.03868,0.10726 1.83839,0.22016 l 0.0339,10.84784 z m -31.18308,8.43553 v 3.41336 h -25.20877 c 0.24838,2.81122 1.15534,4.92057 2.73031,6.3243 1.57119,1.40749 3.76522,2.115 6.57644,2.115 2.27494,0 4.60446,-0.37822 6.97913,-1.12712 2.37843,-0.74702 4.81708,-1.87979 7.31406,-3.39642 v 9.23901 c -2.5459,1.07255 -5.09369,1.87603 -7.64712,2.42548 -2.55343,0.54568 -5.1031,0.82041 -7.649,0.82041 -6.11356,0 -10.86102,-1.71985 -14.24238,-5.17084 -3.38137,-3.44723 -5.06735,-8.28312 -5.06735,-14.50581 0,-6.1192 1.65964,-10.93064 4.98267,-14.43243 3.32492,-3.50556 7.90303,-5.25928 13.72681,-5.25928 5.3082,0 9.55701,1.7763 12.73704,5.3289 3.17815,3.54507 4.76816,8.29441 4.76816,14.22544 z m -11.08305,-3.9835 c 0,-2.2787 -0.59273,-4.11145 -1.79136,-5.50953 -1.19298,-1.39621 -2.75665,-2.08678 -4.69665,-2.08678 -2.07737,0 -3.76711,0.64918 -5.07111,1.95506 -1.30964,1.30776 -2.12817,3.18755 -2.46311,5.64125 h 14.02223 z m -39.61486,-25.30661 v 10.64462 h 11.11128 v 8.57102 h -11.11128 v 15.90013 c 0,1.73867 0.30483,2.9166 0.92014,3.5319 0.61154,0.61531 1.84403,0.91826 3.69748,0.91826 h 5.55658 v 8.57478 h -9.23713 c -4.26387,0 -7.28584,-0.99164 -9.07154,-2.96364 -1.78759,-1.97575 -2.67762,-5.33077 -2.67762,-10.0613 v -15.90013 h -5.35901 v -8.57102 h 5.35901 v -10.64462 h 10.81209 z m -26.06682,0 v 10.64462 h 11.11504 v 8.57102 h -11.11504 v 15.90013 c 0,1.73867 0.30672,2.9166 0.92014,3.5319 0.61343,0.61531 1.84592,0.91826 3.69749,0.91826 h 5.56034 v 8.57478 h -9.23901 c -4.26387,0 -7.28584,-0.99164 -9.07155,-2.96364 -1.78759,-1.97575 -2.67762,-5.33077 -2.67762,-10.0613 v -15.90013 h -5.359 v -8.57102 h 5.359 v -10.64462 h 10.81021 z m -19.26456,29.29011 v 3.41336 h -25.20689 c 0.24461,2.81122 1.15346,4.92057 2.72466,6.3243 1.57684,1.40749 3.77087,2.115 6.58021,2.115 2.27306,0 4.59881,-0.37822 6.97912,-1.12712 2.38032,-0.74891 4.81709,-1.87979 7.31407,-3.39642 v 9.23901 c -2.54214,1.07255 -5.09369,1.87603 -7.64712,2.42548 -2.55531,0.54568 -5.10498,0.82041 -7.649,0.82041 -6.11732,0 -10.86102,-1.71985 -14.24238,-5.17084 -3.37949,-3.44723 -5.06923,-8.28312 -5.06923,-14.50581 0,-6.1192 1.66152,-10.93064 4.98455,-14.43243 3.3268,-3.50556 7.90115,-5.25928 13.7268,-5.25928 5.3082,0 9.55326,1.7763 12.73517,5.3289 3.18002,3.54507 4.77004,8.29441 4.77004,14.22544 z m -11.08117,-3.9835 c 0,-2.2787 -0.59461,-4.11145 -1.78948,-5.50953 -1.19486,-1.39621 -2.76229,-2.08678 -4.70418,-2.08678 -2.07736,0 -3.76523,0.64918 -5.06922,1.95506 -1.304,1.30776 -2.12441,3.18755 -2.45935,5.64125 h 14.02223 z m -90.86599,-27.14689 h 11.11316 l 7.76567,36.32193 7.73367,-36.32193 h 11.17902 l 7.70169,36.32193 7.76378,-36.32193 h 11.0473 l -10.61263,49.98099 h -13.38811 l -8.17022,-37.99662 -8.06673,37.99662 h -13.39187 l -10.67473,-49.98099 z m -22.09648,22.69486 c -0.95965,-0.49112 -1.90425,-0.85052 -2.82816,-1.08761 -0.9239,-0.23709 -1.87038,-0.35376 -2.82815,-0.35376 -2.76794,0 -4.89799,0.99165 -6.39204,2.96928 -1.49593,1.97388 -2.24296,4.80015 -2.24296,8.4807 v 17.2794 h -10.7801 v -37.49797 h 10.7801 v 6.15683 c 1.38492,-2.45558 2.97493,-4.24505 4.77004,-5.37029 1.79512,-1.12901 3.95528,-1.69351 6.47672,-1.69351 0.35752,0 0.74703,0.0151 1.17228,0.0489 0.42526,0.0395 1.03869,0.10726 1.84216,0.22016 l 0.0301,10.84784 z m -32.55482,8.43553 v 3.41336 h -25.20689 c 0.24462,2.81122 1.15535,4.92057 2.72842,6.3243 1.57496,1.40749 3.76523,2.115 6.58021,2.115 2.27306,0 4.60258,-0.37822 6.97725,-1.12712 2.37843,-0.74702 4.8152,-1.87979 7.31406,-3.39642 v 9.23901 c -2.54402,1.07255 -5.09369,1.87603 -7.64712,2.42548 -2.55531,0.54568 -5.10498,0.82041 -7.65088,0.82041 -6.11544,0 -10.86102,-1.71985 -14.24238,-5.17084 -3.38137,-3.44723 -5.07111,-8.28312 -5.07111,-14.50581 0,-6.1192 1.6634,-10.93064 4.98643,-14.43243 3.3268,-3.50556 7.90115,-5.25928 13.72492,-5.25928 5.31197,0 9.5589,1.7763 12.73893,5.3289 3.17814,3.54507 4.76816,8.29441 4.76816,14.22544 z m -11.07929,-3.9835 c 0,-2.2787 -0.59837,-4.11145 -1.78947,-5.50953 -1.19487,-1.39621 -2.7623,-2.08678 -4.70419,-2.08678 -2.07548,0 -3.76522,0.64918 -5.0711,1.95506 -1.30588,1.30776 -2.12441,3.18755 -2.46123,5.64125 h 14.02599 z m -30.54896,0 v 22.8341 h -10.84596 v -3.72007 -13.69105 c 0,-3.27787 -0.0677,-5.53588 -0.20134,-6.76273 -0.1336,-1.22685 -0.35564,-2.13193 -0.66988,-2.70961 -0.42337,-0.78277 -0.99728,-1.38867 -1.72361,-1.8271 -0.72444,-0.4309 -1.54485,-0.65482 -2.45935,-0.65482 -2.25424,0 -4.02301,0.97094 -5.30631,2.89777 -1.28707,1.9306 -1.92496,4.60257 -1.92496,8.01781 v 18.4498 h -10.7801 v -52.09411 h 10.7801 v 20.09062 c 1.62765,-2.19027 3.35691,-3.80286 5.18778,-4.84154 1.82898,-1.03304 3.84802,-1.55803 6.05898,-1.55803 3.88378,0 6.83236,1.33034 8.85516,3.9835 2.01903,2.66257 3.02949,6.52 3.02949,11.58546 z m -41.15783,-13.48971 v 9.77341 c -1.45077,-1.11771 -2.91848,-1.93812 -4.39935,-2.48005 -1.48841,-0.53251 -3.02197,-0.80159 -4.60446,-0.80159 -3.01255,0 -5.35524,0.97847 -7.02993,2.93353 -1.6728,1.95318 -2.51015,4.6816 -2.51015,8.18904 0,3.49803 0.83735,6.22457 2.51015,8.1834 1.67469,1.95129 4.01738,2.92411 7.02993,2.92411 1.69727,0 3.30234,-0.27472 4.82085,-0.83734 1.51851,-0.55509 2.91283,-1.37927 4.18484,-2.4744 v 9.80916 c -1.67469,0.69245 -3.38137,1.21179 -5.12191,1.55614 -1.74055,0.34246 -3.48298,0.51746 -5.21976,0.51746 -6.09474,0 -10.85914,-1.7349 -14.29695,-5.20471 -3.43594,-3.46604 -5.15391,-8.29629 -5.15391,-14.47194 0,-6.18506 1.71797,-11.01531 5.15391,-14.48135 3.43781,-3.47545 8.20221,-5.21035 14.29695,-5.21035 1.76312,0 3.50179,0.17499 5.21976,0.5231 1.71608,0.3387 3.42464,0.86181 5.12003,1.55238 z m -35.57114,0 v 9.10918 c -2.29941,-1.07632 -4.52355,-1.87979 -6.67806,-2.41042 -2.15264,-0.54004 -4.18108,-0.80536 -6.07592,-0.80536 -2.05291,0 -3.57706,0.28225 -4.57059,0.8524 -0.99352,0.56826 -1.4884,1.44512 -1.4884,2.62681 0,0.95777 0.37257,1.69351 1.12148,2.20909 0.74702,0.51181 2.10183,0.89191 4.06629,1.13841 l 1.87603,0.2973 c 5.53212,0.78278 9.25407,2.06984 11.16208,3.85179 1.90802,1.78382 2.86203,4.58752 2.86203,8.3979 0,3.99855 -1.32846,6.99794 -3.98162,9.01133 -2.65881,2.00586 -6.61785,3.01068 -11.88465,3.01068 -2.23166,0 -4.53483,-0.1957 -6.91326,-0.5852 -2.37656,-0.38951 -4.81332,-0.97659 -7.31218,-1.76125 v -9.10165 c 2.14134,1.15911 4.34478,2.02845 6.61031,2.61553 2.26554,0.57579 4.55741,0.86933 6.87752,0.86933 2.09806,0 3.68431,-0.32553 4.75498,-0.97847 1.06879,-0.64729 1.60695,-1.60506 1.60695,-2.87708 0,-1.07067 -0.36692,-1.86473 -1.10642,-2.3916 -0.73385,-0.52311 -2.19591,-0.93143 -4.3843,-1.22497 l -1.90613,-0.2672 c -4.79827,-0.66799 -8.16458,-1.91178 -10.0933,-3.7163 -1.93247,-1.80829 -2.89589,-4.55177 -2.89589,-8.23232 0,-3.97221 1.22685,-6.91891 3.68243,-8.83822 2.4537,-1.92119 6.21517,-2.88084 11.28063,-2.88084 1.98517,0 4.07382,0.16935 6.26033,0.50617 2.1865,0.33494 4.56305,0.85804 7.12966,1.57496 z M 149.418,122.10375 v 10.64462 h 11.11504 v 8.57102 H 149.418 v 15.90013 c 0,1.73867 0.3086,2.9166 0.92202,3.5319 0.61343,0.61531 1.84592,0.91826 3.69937,0.91826 h 5.55282 v 8.57478 h -9.23714 c -4.26387,0 -7.28771,-0.99164 -9.07154,-2.96364 -1.78571,-1.97575 -2.67762,-5.33077 -2.67762,-10.0613 v -15.90013 h -5.35712 v -8.57102 h 5.35712 V 122.10375 H 149.418 z m -55.38516,33.5427 v -22.89808 h 10.84596 v 3.74641 c 0,2.03597 -0.0113,4.58752 -0.0339,7.65088 -0.0207,3.06901 -0.032,5.12003 -0.032,6.14554 0,3.0088 0.0715,5.18213 0.21827,6.50495 0.14489,1.33034 0.38386,2.29752 0.72068,2.89966 0.44596,0.77901 1.02551,1.38114 1.73867,1.80452 0.71503,0.4309 1.5298,0.63977 2.44617,0.63977 2.25236,0 4.02114,-0.96342 5.30444,-2.87896 1.2833,-1.91743 1.92495,-4.58564 1.92495,-7.99899 v -18.51378 h 10.7801 v 37.49609 h -10.7801 v -5.42486 c -1.63141,2.18274 -3.35314,3.80098 -5.17272,4.83025 -1.81958,1.04245 -3.82356,1.55991 -6.00818,1.55991 -3.88377,0 -6.84553,-1.32658 -8.88902,-3.9835 -2.04162,-2.65128 -3.06337,-6.51247 -3.06337,-11.57981 z m -7.11272,-4.25259 v 3.41336 H 61.71135 c 0.24461,2.81122 1.15346,4.92057 2.72842,6.3243 1.5712,1.40749 3.76523,2.115 6.57645,2.115 2.27682,0 4.60257,-0.37822 6.97912,-1.12712 2.37844,-0.74702 4.8152,-1.87979 7.31407,-3.39642 v 9.23901 c -2.54403,1.07255 -5.09557,1.87603 -7.64712,2.42548 -2.5572,0.54568 -5.10686,0.82041 -7.649,0.82041 -6.11356,0 -10.86102,-1.71985 -14.24427,-5.17084 -3.38136,-3.44723 -5.0711,-8.28312 -5.0711,-14.50581 0,-6.1192 1.66151,-10.93064 4.98643,-14.43243 3.3268,-3.50556 7.89926,-5.25928 13.72492,-5.25928 5.31196,0 9.55702,1.7763 12.73893,5.3289 3.18002,3.54507 4.77192,8.29441 4.77192,14.22544 z m -11.08117,-3.9835 c 0,-2.2787 -0.59837,-4.11145 -1.79136,-5.50953 -1.19486,-1.39621 -2.76229,-2.08678 -4.70418,-2.08678 -2.07736,0 -3.76522,0.64918 -5.07299,1.95506 -1.30212,1.30776 -2.12252,3.18755 -2.45934,5.64125 H 75.83895 z M 4.55177,120.26347 h 12.25157 c 6.83048,0 11.91287,0.54004 15.24908,1.62388 3.33432,1.08008 6.19635,2.91848 8.58607,5.50578 2.11877,2.25236 3.69373,4.85471 4.71924,7.80141 1.02739,2.94106 1.53921,6.27915 1.53921,10.00674 0,3.77464 -0.51182,7.1353 -1.53921,10.09141 -1.02551,2.95611 -2.60047,5.56034 -4.71924,7.81647 -2.4123,2.58918 -5.30255,4.42193 -8.66886,5.50953 -3.37008,1.08008 -8.42613,1.62389 -15.16441,1.62389 H 4.55177 v -49.97911 z m 11.61369,9.73766 v 30.49627 h 4.15473 c 4.72864,0 8.34334,-1.30776 10.84408,-3.912 2.49886,-2.61176 3.74641,-6.40145 3.74641,-11.38412 0,-4.95445 -1.24378,-8.72532 -3.72947,-11.31262 -2.48946,-2.59106 -6.10791,-3.88565 -10.86102,-3.88565 h -4.15473 z"
      id="path89"
      style="fill:#2d4b9b;"
  />
  <path
      d="m 793.23801,214.78364 v -14.6413 h 7.90491 v 37.97592 h -7.90491 v -3.95528 c -1.09137,1.60884 -2.28623,2.79053 -3.58647,3.53943 -1.304,0.74703 -2.81874,1.12336 -4.54047,1.12336 -3.02762,0 -5.51142,-1.34163 -7.45707,-4.01549 -1.94377,-2.67574 -2.91471,-6.12296 -2.91471,-10.33603 0,-4.21306 0.97094,-7.65653 2.91471,-10.33603 1.94565,-2.67385 4.42945,-4.01549 7.45707,-4.01549 1.70856,0 3.21766,0.3801 4.5273,1.13653 1.30776,0.75267 2.50639,1.92684 3.59964,3.52438 z m -5.20094,17.69148 c 1.68974,0 2.98245,-0.67928 3.8706,-2.04726 0.89191,-1.36609 1.33034,-3.35125 1.33034,-5.95549 0,-2.60047 -0.43843,-4.58752 -1.33034,-5.95361 -0.88815,-1.3661 -2.17898,-2.04914 -3.8706,-2.04914 -1.65776,0 -2.93353,0.68304 -3.81603,2.04914 -0.88815,1.36609 -1.33411,3.35314 -1.33411,5.95361 0,2.60424 0.44596,4.5894 1.33411,5.95549 0.8825,1.36798 2.15827,2.04726 3.81603,2.04726 z m -18.3369,-11.00402 v 16.64528 h -7.90679 v -2.71149 -10.02744 c 0,-2.36149 -0.0527,-3.98538 -0.14866,-4.88294 -0.0978,-0.89003 -0.25967,-1.55426 -0.48735,-1.97575 -0.30859,-0.56827 -0.73197,-1.01611 -1.25696,-1.32846 -0.53063,-0.32365 -1.12712,-0.47983 -1.79323,-0.47983 -1.64458,0 -2.93165,0.70374 -3.8706,2.11312 -0.93519,1.40561 -1.40185,3.35502 -1.40185,5.84447 v 13.44644 h -7.85786 v -27.33695 h 7.85786 v 4.0042 c 1.18734,-1.59754 2.44994,-2.7717 3.78216,-3.52625 1.33787,-0.75455 2.80746,-1.13653 4.41817,-1.13653 2.8338,0 4.98079,0.96906 6.45602,2.90907 1.46959,1.93812 2.20909,4.74934 2.20909,8.44306 z m -31.52179,1.04998 v 15.5953 h -7.93313 v -4.05312 c -1.05938,1.66151 -2.24484,2.86767 -3.56201,3.62598 -1.31717,0.75455 -2.91847,1.13653 -4.80955,1.13653 -2.55343,0 -4.62515,-0.82794 -6.20952,-2.48193 -1.58249,-1.64646 -2.38032,-3.78969 -2.38032,-6.42967 0,-3.20073 0.99164,-5.55282 2.97304,-7.05439 1.98893,-1.49029 5.10498,-2.24108 9.35004,-2.24108 h 4.63644 v -0.67928 c 0,-1.38115 -0.493,-2.39913 -1.47523,-3.0389 -0.98224,-0.64165 -2.50639,-0.96718 -4.57435,-0.96718 -1.69162,0 -3.2647,0.19193 -4.71171,0.56262 -1.44889,0.37257 -2.79805,0.93519 -4.04936,1.68598 v -6.66112 c 1.69351,-0.45913 3.39078,-0.80536 5.08616,-1.04057 1.70292,-0.23521 3.40019,-0.35375 5.08805,-0.35375 4.44451,0 7.64711,0.97658 9.61534,2.91659 1.97012,1.93812 2.95611,5.09933 2.95611,9.47799 z m -12.00319,3.2948 c -1.64646,0 -2.88272,0.3086 -3.7163,0.92955 -0.82418,0.61343 -1.24191,1.52227 -1.24191,2.73031 0,1.10266 0.33306,1.97387 1.00105,2.59859 0.66612,0.6266 1.59566,0.94083 2.78488,0.94083 1.47711,0 2.72278,-0.59084 3.72759,-1.77065 1.01046,-1.17981 1.51287,-2.65316 1.51287,-4.42946 v -0.99728 h -4.06818 z m -47.82836,-24.1381 h 8.47129 v 13.88863 h 12.47173 v -13.88863 h 8.44307 v 36.4386 h -8.44307 v -15.4523 h -12.47173 v 15.4523 h -8.47129 v -36.4386 z m -15.88696,16.54744 c -0.70187,-0.35752 -1.38491,-0.61907 -2.06232,-0.79031 -0.67552,-0.16935 -1.36609,-0.25779 -2.06231,-0.25779 -2.01527,0 -3.5733,0.7188 -4.66279,2.15828 -1.08948,1.4376 -1.63141,3.5018 -1.63141,6.18882 v 12.59028 h -7.86351 v -27.33695 h 7.86351 v 4.49532 c 1.00858,-1.79135 2.16205,-3.09911 3.47169,-3.91952 1.30964,-0.82041 2.88837,-1.2325 4.723,-1.2325 0.26343,0 0.5438,0.0132 0.85804,0.0395 0.3086,0.0245 0.75455,0.0753 1.33975,0.15617 l 0.0264,7.90868 z m -23.73166,6.15118 v 2.48946 h -18.38018 c 0.18064,2.04726 0.83922,3.58647 1.99081,4.60821 1.14594,1.02928 2.74348,1.53921 4.7945,1.53921 1.65964,0 3.35879,-0.27284 5.08616,-0.82041 1.7349,-0.54192 3.5112,-1.37174 5.33643,-2.47628 v 6.73639 c -1.8591,0.7809 -3.72007,1.37174 -5.57916,1.76877 -1.86286,0.4008 -3.72195,0.59838 -5.57728,0.59838 -4.45957,0 -7.92184,-1.25884 -10.38307,-3.77088 -2.46876,-2.51203 -3.70125,-6.04017 -3.70125,-10.58064 0,-4.4558 1.21179,-7.96136 3.63539,-10.51667 2.42548,-2.55343 5.76168,-3.83485 10.0105,-3.83485 3.86872,0 6.96783,1.29647 9.28605,3.88189 2.32199,2.58918 3.4811,6.04958 3.4811,10.37742 z m -8.0799,-2.9053 c 0,-1.65775 -0.43843,-2.99938 -1.30589,-4.01361 -0.87121,-1.01798 -2.01715,-1.5298 -3.43029,-1.5298 -1.51474,0 -2.74724,0.47795 -3.6956,1.43007 -0.95213,0.95401 -1.5505,2.31823 -1.79323,4.11334 h 10.22501 z m -23.26877,0 v 16.64528 h -7.91244 v -2.71149 -10.02744 c 0,-2.36149 -0.047,-3.98538 -0.14677,-4.88294 -0.096,-0.89003 -0.25967,-1.55426 -0.48359,-1.97575 -0.31235,-0.56827 -0.73197,-1.01611 -1.25507,-1.32846 -0.5344,-0.32365 -1.12901,-0.47983 -1.79888,-0.47983 -1.64458,0 -2.93165,0.70374 -3.86872,2.11312 -0.93143,1.40561 -1.39996,3.35502 -1.39996,5.84447 v 13.44644 h -7.86352 v -27.33695 h 7.86352 v 4.0042 c 1.18545,-1.59754 2.44993,-2.7717 3.78216,-3.52625 1.3341,-0.75455 2.80369,-1.13653 4.41817,-1.13653 2.83003,0 4.9789,0.96906 6.45413,2.90907 1.47147,1.93812 2.21097,4.74934 2.21097,8.44306 z m -39.62803,-21.33064 h 7.86351 v 7.12401 h -7.86351 v -7.12401 z m 0,10.63898 h 7.86351 v 27.33694 h -7.86351 v -27.33694 z m -5.44933,13.59696 v 2.48946 H 543.922 c 0.17876,2.04726 0.84299,3.58647 1.98893,4.60821 1.14594,1.02928 2.74536,1.53921 4.79827,1.53921 1.65775,0 3.35502,-0.27284 5.08616,-0.82041 1.73302,-0.54192 3.50932,-1.37174 5.33454,-2.47628 v 6.73639 c -1.85533,0.7809 -3.71818,1.37174 -5.57916,1.76877 -1.86474,0.4008 -3.72195,0.59838 -5.57539,0.59838 -4.46145,0 -7.92185,-1.25884 -10.38684,-3.77088 -2.46687,-2.51203 -3.69749,-6.04017 -3.69749,-10.58064 0,-4.4558 1.2118,-7.96136 3.63351,-10.51667 2.42736,-2.55343 5.7598,-3.83485 10.00862,-3.83485 3.87437,0 6.96972,1.29647 9.28982,3.88189 2.31822,2.58918 3.47921,6.04958 3.47921,10.37742 z m -8.07802,-2.9053 c 0,-1.65775 -0.43843,-2.99938 -1.30588,-4.01361 -0.87498,-1.01798 -2.01527,-1.5298 -3.43029,-1.5298 -1.51663,0 -2.74536,0.47795 -3.69749,1.43007 -0.954,0.95401 -1.55049,2.31823 -1.79323,4.11334 h 10.22689 z m -34.68675,-9.8355 v 6.63854 c -1.67281,-0.77901 -3.29858,-1.36798 -4.86789,-1.75748 -1.57308,-0.39327 -3.04831,-0.58897 -4.42946,-0.58897 -1.49781,0 -2.608,0.20887 -3.33244,0.62472 -0.72445,0.41397 -1.08385,1.05374 -1.08385,1.91554 0,0.6981 0.27285,1.23814 0.81853,1.60883 0.54569,0.37257 1.53168,0.65482 2.96175,0.8317 l 1.37174,0.21828 c 4.03055,0.57202 6.7458,1.49969 8.13448,2.80369 1.39055,1.30023 2.08489,3.34373 2.08489,6.12672 0,2.91095 -0.96342,5.09746 -2.90342,6.56328 -1.93248,1.46582 -4.82273,2.19968 -8.66134,2.19968 -1.62953,0 -3.3061,-0.14489 -5.041,-0.42903 -1.73114,-0.28601 -3.50932,-0.70939 -5.33643,-1.27953 v -6.63666 c 1.56555,0.84487 3.17627,1.47711 4.82273,1.8986 1.64834,0.42903 3.3268,0.63789 5.01466,0.63789 1.5298,0 2.68514,-0.23521 3.46604,-0.70751 0.78089,-0.47418 1.1704,-1.17416 1.1704,-2.09994 0,-0.77902 -0.2672,-1.36045 -0.80159,-1.7462 -0.54004,-0.38198 -1.60319,-0.67552 -3.20073,-0.89003 l -1.38679,-0.19569 c -3.49803,-0.493 -5.95173,-1.39244 -7.36299,-2.70773 -1.40373,-1.32093 -2.10747,-3.31927 -2.10747,-6.00065 0,-2.89966 0.89568,-5.04665 2.68515,-6.44662 1.7857,-1.39996 4.52918,-2.09994 8.22291,-2.09994 1.44512,0 2.96739,0.12419 4.56682,0.36881 1.59001,0.24649 3.32491,0.62847 5.1953,1.1497 z m -50.99334,15.8418 v -16.69796 h 7.90867 v 2.73595 c 0,1.47711 -0.009,3.3362 -0.0282,5.5754 -0.0132,2.23919 -0.0207,3.72947 -0.0207,4.47838 0,2.19967 0.0489,3.7784 0.15618,4.74934 0.10537,0.96718 0.28037,1.66904 0.5231,2.10935 0.32365,0.56639 0.74891,1.01046 1.27013,1.31529 0.51934,0.31048 1.11207,0.46101 1.78383,0.46101 1.63893,0 2.93164,-0.69433 3.86684,-2.0943 0.9333,-1.39996 1.40184,-3.33809 1.40184,-5.83507 v -13.49724 h 7.86163 v 27.33695 h -7.86163 v -3.95528 c -1.18922,1.59566 -2.44429,2.76982 -3.76711,3.52626 -1.32846,0.75455 -2.78864,1.13653 -4.3843,1.13653 -2.83003,0 -4.99019,-0.97095 -6.47671,-2.90719 -1.49217,-1.92871 -2.23355,-4.74746 -2.23355,-8.43742 z m -6.5294,-4.95632 v 15.5953 h -7.93314 v -4.05312 c -1.0575,1.66151 -2.24483,2.86767 -3.562,3.62598 -1.32094,0.75455 -2.92224,1.13653 -4.80956,1.13653 -2.55343,0 -4.62327,-0.82794 -6.2114,-2.48193 -1.58437,-1.64646 -2.38032,-3.78969 -2.38032,-6.42967 0,-3.20073 0.98976,-5.55282 2.98057,-7.05439 1.98329,-1.49029 5.09934,-2.24108 9.34439,-2.24108 h 4.63644 v -0.67928 c 0,-1.38115 -0.493,-2.39913 -1.47523,-3.0389 -0.98411,-0.64165 -2.51015,-0.96718 -4.57623,-0.96718 -1.69162,0 -3.26094,0.19193 -4.70983,0.56262 -1.44888,0.37257 -2.79992,0.93519 -4.05124,1.68598 v -6.66112 c 1.69351,-0.45913 3.39078,-0.80536 5.08993,-1.04057 1.69915,-0.23521 3.39642,-0.35375 5.08616,-0.35375 4.44075,0 7.64524,0.97658 9.61535,2.91659 1.97011,1.93812 2.95611,5.09933 2.95611,9.47799 z m -12.00884,3.2948 c -1.63894,0 -2.88084,0.3086 -3.70878,0.92955 -0.82793,0.61343 -1.2419,1.52227 -1.2419,2.73031 0,1.10266 0.33305,1.97387 0.99729,2.59859 0.66799,0.6266 1.59377,0.94083 2.78299,0.94083 1.48088,0 2.72466,-0.59084 3.73324,-1.77065 1.01046,-1.17981 1.51286,-2.65316 1.51286,-4.42946 v -0.99728 h -4.0757 z m -28.97212,-3.2948 v 15.5953 h -7.93125 v -4.05312 c -1.05938,1.66151 -2.24295,2.86767 -3.562,3.62598 -1.31906,0.75455 -2.92224,1.13653 -4.80768,1.13653 -2.55343,0 -4.62703,-0.82794 -6.2114,-2.48193 -1.58625,-1.64646 -2.37844,-3.78969 -2.37844,-6.42967 0,-3.20073 0.99165,-5.55282 2.97681,-7.05439 1.98517,-1.49029 5.10122,-2.24108 9.35003,-2.24108 h 4.63456 v -0.67928 c 0,-1.38115 -0.49299,-2.39913 -1.47523,-3.0389 -0.98411,-0.64165 -2.50827,-0.96718 -4.57434,-0.96718 -1.69351,0 -3.26283,0.19193 -4.71171,0.56262 -1.44701,0.37257 -2.79993,0.93519 -4.05124,1.68598 v -6.66112 c 1.69162,-0.45913 3.38701,-0.80536 5.08992,-1.04057 1.69727,-0.23521 3.39266,-0.35375 5.08804,-0.35375 4.44075,0 7.64712,0.97658 9.61347,2.91659 1.96635,1.93812 2.95046,5.09933 2.95046,9.47799 z m -12.00695,3.2948 c -1.64082,0 -2.87896,0.3086 -3.70878,0.92955 -0.82982,0.61343 -1.24567,1.52227 -1.24567,2.73031 0,1.10266 0.33494,1.97387 1.00105,2.59859 0.66612,0.6266 1.5919,0.94083 2.783,0.94083 1.48087,0 2.72278,-0.59084 3.73324,-1.77065 1.00669,-1.17981 1.51286,-2.65316 1.51286,-4.42946 v -0.99728 h -4.0757 z m -34.59267,-10.49409 c 0.99164,-1.6935 2.17145,-2.98057 3.53754,-3.86683 1.36609,-0.89192 2.86955,-1.33411 4.51413,-1.33411 2.83004,0 4.98644,0.96906 6.46543,2.90907 1.48088,1.93624 2.22038,4.74746 2.22038,8.44118 v 16.64528 h -7.90679 v -14.25367 c 0.0169,-0.21075 0.0282,-0.43091 0.0376,-0.65671 0.008,-0.23144 0.0113,-0.55885 0.0113,-0.97847 0,-1.93624 -0.25591,-3.33808 -0.76772,-4.21306 -0.51182,-0.86745 -1.3454,-1.304 -2.50263,-1.304 -1.47899,0 -2.62681,0.68116 -3.4397,2.0529 -0.81476,1.36798 -1.24002,3.34374 -1.27013,5.92916 v 13.42385 h -7.9049 v -14.25367 c 0,-3.02197 -0.23709,-4.97326 -0.70751,-5.84636 -0.4723,-0.86745 -1.30965,-1.304 -2.5158,-1.304 -1.49405,0 -2.65504,0.68869 -3.47545,2.06608 -0.82417,1.37362 -1.23438,3.33809 -1.23438,5.8934 v 13.44643 h -7.9049 v -27.33694 h 7.9049 v 4.0042 c 0.96154,-1.54297 2.06796,-2.70773 3.32116,-3.48862 1.25319,-0.77713 2.63434,-1.17229 4.1472,-1.17229 1.69163,0 3.19508,0.45537 4.50473,1.36986 1.30776,0.91073 2.29752,2.18651 2.96552,3.82732 z m -37.69368,-15.18133 h 7.85599 v 7.12401 h -7.85599 v -7.12401 z m 0,10.63898 h 7.85599 v 27.33694 h -7.85599 v -27.33694 z m -14.89908,-10.63898 h 7.85598 v 37.97592 h -7.85598 v -37.97592 z m -33.00831,1.53732 h 8.46753 v 13.29967 l 12.17819,-13.29967 h 9.8355 l -15.81546,17.25306 17.42617,19.18554 H 310.3349 l -13.03247,-14.34964 v 14.34964 h -8.46752 v -36.4386 z m -25.43645,13.10586 v -14.6413 h 7.90679 v 37.97592 h -7.90679 v -3.95528 c -1.09137,1.60884 -2.28623,2.79053 -3.58647,3.53943 -1.30212,0.74703 -2.81498,1.12336 -4.54047,1.12336 -3.02385,0 -5.51142,-1.34163 -7.45331,-4.01549 -1.94565,-2.67574 -2.91659,-6.12296 -2.91659,-10.33603 0,-4.21306 0.97094,-7.65653 2.91659,-10.33603 1.94377,-2.67385 4.42946,-4.01549 7.45331,-4.01549 1.70855,0 3.21766,0.3801 4.5273,1.13653 1.30964,0.75644 2.50827,1.92684 3.59964,3.52438 z m -5.19718,17.69148 c 1.69162,0 2.98057,-0.67928 3.86872,-2.04726 0.88627,-1.36609 1.33034,-3.35125 1.33034,-5.95549 0,-2.60047 -0.44407,-4.58752 -1.33034,-5.95361 -0.88627,-1.3661 -2.17521,-2.04914 -3.86872,-2.04914 -1.65964,0 -2.93165,0.68304 -3.81791,2.04914 -0.88815,1.36609 -1.33223,3.35314 -1.33223,5.95361 0,2.60424 0.44219,4.5894 1.33223,5.95549 0.88626,1.36798 2.15827,2.04726 3.81791,2.04726 z M 239.85684,221.4711 v 16.64528 h -7.9049 v -2.71149 -10.02744 c 0,-2.36149 -0.0508,-3.98538 -0.14678,-4.88294 -0.0997,-0.89003 -0.26155,-1.55426 -0.48923,-1.97575 -0.30671,-0.56827 -0.72633,-1.01611 -1.25508,-1.32846 -0.52875,-0.32365 -1.129,-0.47983 -1.79323,-0.47983 -1.64646,0 -2.93353,0.70374 -3.86872,2.11312 -0.93707,1.40561 -1.40373,3.35502 -1.40373,5.84447 v 13.44644 h -7.85786 v -27.33695 h 7.85786 v 4.0042 c 1.18734,-1.59754 2.44618,-2.7717 3.78216,-3.52625 1.33599,-0.75455 2.80558,-1.13653 4.41817,-1.13653 2.83004,0 4.98267,0.96906 6.45602,2.90907 1.47147,1.93812 2.20532,4.74934 2.20532,8.44306 z m -56.5104,6.0063 v -16.69796 h 7.90679 v 2.73595 c 0,1.47711 -0.007,3.3362 -0.0245,5.5754 -0.0169,2.23919 -0.0245,3.72947 -0.0245,4.47838 0,2.19967 0.0527,3.7784 0.15618,4.74934 0.10538,0.96718 0.28037,1.66904 0.52499,2.10935 0.32741,0.56639 0.7489,1.01046 1.27013,1.31529 0.51934,0.31048 1.11395,0.46101 1.78194,0.46101 1.6427,0 2.93353,-0.69433 3.86684,-2.0943 0.93707,-1.39996 1.40373,-3.33809 1.40373,-5.83507 v -13.49724 h 7.85975 V 238.1145 H 200.21 v -3.95528 c -1.18734,1.59566 -2.44429,2.76982 -3.77087,3.52626 -1.3247,0.75455 -2.78488,1.13653 -4.38054,1.13653 -2.83003,0 -4.99019,-0.97095 -6.4786,-2.90719 -1.4884,-1.92871 -2.23354,-4.74746 -2.23354,-8.43742 z m -14.28001,-9.25218 c -0.69998,-0.35752 -1.38491,-0.61907 -2.06231,-0.79031 -0.67364,-0.16935 -1.36234,-0.25779 -2.06232,-0.25779 -2.01715,0 -3.57329,0.7188 -4.6609,2.15828 -1.08949,1.4376 -1.63706,3.5018 -1.63706,6.18882 v 12.59028 h -7.85786 v -27.33695 h 7.85786 v 4.49532 c 1.01046,-1.79135 2.16769,-3.09911 3.47922,-3.91952 1.30964,-0.82041 2.88272,-1.2325 4.72111,-1.2325 0.26156,0 0.54757,0.0132 0.85616,0.0395 0.3086,0.0245 0.75644,0.0753 1.34164,0.15617 l 0.0245,7.90868 z m -23.73354,6.15118 v 2.48946 h -18.3783 c 0.18064,2.04726 0.84299,3.58647 1.98893,4.60821 1.14594,1.02928 2.74536,1.53921 4.7945,1.53921 1.66152,0 3.35691,-0.27284 5.08993,-0.82041 1.73302,-0.54192 3.50932,-1.37174 5.33266,-2.47628 v 6.73639 c -1.85533,0.7809 -3.71254,1.37174 -5.5754,1.76877 -1.86286,0.4008 -3.72383,0.59838 -5.5754,0.59838 -4.45768,0 -7.91996,-1.25884 -10.38307,-3.77088 -2.46687,-2.51203 -3.69937,-6.04017 -3.69937,-10.58064 0,-4.4558 1.2118,-7.96136 3.6354,-10.51667 2.42547,-2.55343 5.7598,-3.83485 10.00485,-3.83485 3.87437,0 6.96972,1.29647 9.28606,3.88189 2.3201,2.58918 3.47921,6.04958 3.47921,10.37742 z m -8.0799,-2.9053 c 0,-1.65775 -0.43467,-2.99938 -1.304,-4.01361 -0.87122,-1.01798 -2.01339,-1.5298 -3.42841,-1.5298 -1.51287,0 -2.74536,0.47795 -3.69749,1.43007 -0.95213,0.95401 -1.5505,2.31823 -1.79323,4.11334 h 10.22313 z m -28.8818,-18.44792 v 7.75626 h 8.10248 v 6.24903 h -8.10248 v 11.59487 c 0,1.26637 0.22392,2.12629 0.66987,2.57601 0.44784,0.44408 1.34728,0.66799 2.69832,0.66799 h 4.05125 v 6.24716 h -6.73828 c -3.10664,0 -5.31196,-0.7188 -6.61219,-2.16016 -1.304,-1.44513 -1.95318,-3.88378 -1.95318,-7.331 v -11.59486 h -3.90635 v -6.24904 h 3.90635 v -7.75626 h 7.88421 z m -20.0003,0 v 7.75626 h 8.1006 v 6.24903 h -8.1006 v 11.59487 c 0,1.26637 0.22392,2.12629 0.66799,2.57601 0.44972,0.44408 1.34916,0.66799 2.69832,0.66799 h 4.05124 v 6.24716 h -6.73639 c -3.10852,0 -5.31196,-0.7188 -6.61219,-2.16016 -1.30212,-1.44513 -1.9513,-3.88378 -1.9513,-7.331 v -11.59486 h -3.90635 v -6.24904 h 3.90635 v -7.75626 h 7.88233 z M 74.3242,224.3764 v 2.48946 H 55.9459 c 0.17876,2.04726 0.84299,3.58647 1.99269,4.60821 1.14594,1.02928 2.74536,1.53921 4.79451,1.53921 1.65963,0 3.35502,-0.27284 5.08804,-0.82041 1.73302,-0.54192 3.50932,-1.37174 5.33078,-2.47628 v 6.73639 c -1.85345,0.7809 -3.71254,1.37174 -5.57352,1.76877 -1.86285,0.4008 -3.72195,0.59838 -5.57728,0.59838 -4.4558,0 -7.91807,-1.25884 -10.38495,-3.77088 -2.46311,-2.51203 -3.6956,-6.04017 -3.6956,-10.58064 0,-4.4558 1.21368,-7.96136 3.63727,-10.51667 2.4236,-2.55343 5.75792,-3.83485 10.00486,-3.83485 3.87248,0 6.96971,1.29647 9.28605,3.88189 2.31446,2.58918 3.47545,6.04958 3.47545,10.37742 z m -8.07802,-2.9053 c 0,-1.65775 -0.43655,-2.99938 -1.30588,-4.01361 -0.87122,-1.01798 -2.01339,-1.5298 -3.42841,-1.5298 -1.51475,0 -2.74536,0.47795 -3.69937,1.43007 -0.94836,0.95401 -1.54862,2.31823 -1.79135,4.11334 H 66.24618 z M 0,201.67778 h 8.10061 l 5.66195,26.48079 5.63749,-26.48079 h 8.15329 l 5.61115,26.48079 5.66383,-26.48079 H 46.88 l -7.73556,36.4386 H 29.38233 L 23.42871,210.41439 17.5466,238.11638 H 7.78449 L 0,201.67778 z"
      id="path143"
      style="fill:#1d1d1b;"
  />
</svg>
